<?xml version="1.0" encoding="UTF-8" standalone="no"?>
<!-- Created with Inkscape (http://www.inkscape.org/) -->

<svg
   width="42.462006mm"
   height="24.046904mm"
   viewBox="0 0 42.462006 24.046903"
   version="1.1"
   id="svg830"
   inkscape:version="1.1 (ce6663b3b7, 2021-05-25)"
   sodipodi:docname="cesta.svg"
   xmlns:inkscape="http://www.inkscape.org/namespaces/inkscape"
   xmlns:sodipodi="http://sodipodi.sourceforge.net/DTD/sodipodi-0.dtd"
   xmlns="http://www.w3.org/2000/svg"
   xmlns:svg="http://www.w3.org/2000/svg">
  <sodipodi:namedview
     id="namedview832"
     pagecolor="#505050"
     bordercolor="#eeeeee"
     borderopacity="1"
     inkscape:pageshadow="0"
     inkscape:pageopacity="0"
     inkscape:pagecheckerboard="0"
     inkscape:document-units="mm"
     showgrid="false"
     fit-margin-top="0"
     fit-margin-left="0"
     fit-margin-right="0"
     fit-margin-bottom="0"
     inkscape:zoom="0.51359075"
     inkscape:cx="132.40114"
     inkscape:cy="122.66576"
     inkscape:window-width="2490"
     inkscape:window-height="1051"
     inkscape:window-x="1670"
     inkscape:window-y="0"
     inkscape:window-maximized="1"
     inkscape:current-layer="layer1" />
  <defs
     id="defs827">
    <inkscape:path-effect
       effect="powerclip"
       id="path-effect4932"
       is_visible="true"
       lpeversion="1"
       inverse="true"
       flatten="false"
       hide_clip="false"
       message="Usar a regra de preenchimento par ou ímpar na caixa de diálogo &lt;b&gt;preenchimento e contorno&lt;/b&gt; se nenhum resultado nivelar após converter o clipe em caminhos." />
    <clipPath
       clipPathUnits="userSpaceOnUse"
       id="clipPath4928">
      <path
         style="display:none;fill:none;fill-opacity:1;stroke:#040404;stroke-width:1.8;stroke-miterlimit:4;stroke-dasharray:none;stroke-opacity:1"
         id="path4930"
         width="48.249416"
         height="11.548606"
         x="80.87529"
         y="132.34738"
         sodipodi:type="rect"
         d="m 83.427917,132.34738 h 43.144163 c 1.41415,0 2.55263,1.13847 2.55263,2.55263 v 6.44335 c 0,1.41416 -1.13848,2.55263 -2.55263,2.55263 H 83.427917 c -1.414156,0 -2.552627,-1.13847 -2.552627,-2.55263 v -6.44335 c 0,-1.41416 1.138471,-2.55263 2.552627,-2.55263 z"
         ry="2.5526266"
         clip-path="none" />
      <path
         id="lpe_path-effect4932"
         style="fill:none;fill-opacity:1;stroke:#040404;stroke-width:1.8;stroke-miterlimit:4;stroke-dasharray:none;stroke-opacity:1"
         class="powerclip"
         d="m 77.60943,128.69047 h 54.78115 v 52.97872 H 77.60943 Z m 5.818487,3.65691 c -1.414156,0 -2.552627,1.13847 -2.552627,2.55263 v 6.44335 c 0,1.41416 1.138471,2.55263 2.552627,2.55263 h 43.144163 c 1.41415,0 2.55263,-1.13847 2.55263,-2.55263 v -6.44335 c 0,-1.41416 -1.13848,-2.55263 -2.55263,-2.55263 z" />
    </clipPath>
  </defs>
  <g
     inkscape:label="Camada 1"
     inkscape:groupmode="layer"
     id="layer1"
     transform="translate(-79.744287,-141.66258)">
    <rect
       style="fill:none;fill-opacity:0.763006;stroke:#040404;stroke-width:0.773659;stroke-miterlimit:4;stroke-dasharray:none;stroke-opacity:0.997833"
       id="rect4039"
       width="0.48302451"
       height="12.072659"
       x="87.291512"
       y="150.33397"
       ry="0.30202791" />
    <rect
       style="fill:none;fill-opacity:0.763006;stroke:#040404;stroke-width:0.773659;stroke-miterlimit:4;stroke-dasharray:none;stroke-opacity:0.997833"
       id="rect4039-5"
       width="0.48302451"
       height="12.072659"
       x="92.522049"
       y="150.33397"
       ry="0.30202791" />
    <rect
       style="fill:none;fill-opacity:0.763006;stroke:#040404;stroke-width:0.773659;stroke-miterlimit:4;stroke-dasharray:none;stroke-opacity:0.997833"
       id="rect4039-6"
       width="0.48302451"
       height="12.072659"
       x="97.752586"
       y="150.33397"
       ry="0.30202791" />
    <rect
       style="fill:none;fill-opacity:0.763006;stroke:#040404;stroke-width:0.773659;stroke-miterlimit:4;stroke-dasharray:none;stroke-opacity:0.997833"
       id="rect4039-2"
       width="0.48302451"
       height="12.072659"
       x="102.98313"
       y="150.33397"
       ry="0.30202791" />
    <rect
       style="fill:none;fill-opacity:0.763006;stroke:#040404;stroke-width:0.773659;stroke-miterlimit:4;stroke-dasharray:none;stroke-opacity:0.997833"
       id="rect4039-9"
       width="0.48302495"
       height="12.072659"
       x="108.21368"
       y="150.33397"
       ry="0.30202785" />
    <rect
       style="fill:none;fill-opacity:0.763006;stroke:#040404;stroke-width:0.773659;stroke-miterlimit:4;stroke-dasharray:none;stroke-opacity:0.997833"
       id="rect4039-1"
       width="0.48302451"
       height="12.072659"
       x="114.33799"
       y="150.33397"
       ry="0.30202791" />
    <path
       style="fill:none;fill-opacity:0.763006;stroke:#040404;stroke-width:1.8;stroke-miterlimit:4;stroke-dasharray:none;stroke-opacity:0.997833"
       id="rect2186"
       width="42.981148"
       height="41.178722"
       x="83.50943"
       y="134.59047"
       ry="11.957768"
       rx="8.0125809"
       clip-path="url(#clipPath4928)"
       sodipodi:type="rect"
       inkscape:path-effect="#path-effect4932"
       d="M 91.522011,134.59047 H 118.478 c 4.43897,0 8.01258,5.33316 8.01258,11.95777 v 17.26318 c 0,6.62461 -3.57361,11.95777 -8.01258,11.95777 H 91.522011 c -4.43897,0 -8.012581,-5.33316 -8.012581,-11.95777 v -17.26318 c 0,-6.62461 3.573611,-11.95777 8.012581,-11.95777 z"
       transform="matrix(0.84274613,0,0,0.52855674,12.486948,72.329787)" />
    <path
       style="fill:none;fill-opacity:1;stroke:#040404;stroke-width:1.8;stroke-miterlimit:4;stroke-dasharray:none;stroke-opacity:1"
       id="rect913-2"
       width="40.662006"
       height="6.1040931"
       x="80.644287"
       y="142.56258"
       sodipodi:type="rect"
       ry="1.349208"
       clip-path="none"
       d="m 81.993495,142.56258 h 37.963595 c 0.74746,0 1.3492,0.60174 1.3492,1.3492 v 3.40568 c 0,0.74746 -0.60174,1.34921 -1.3492,1.34921 H 81.993495 c -0.747461,0 -1.349208,-0.60175 -1.349208,-1.34921 v -3.40568 c 0,-0.74746 0.601747,-1.3492 1.349208,-1.3492 z" />
  </g>
</svg>
