<?xml version="1.0" encoding="UTF-8" standalone="no"?>
<!-- Created with Inkscape (http://www.inkscape.org/) -->

<svg
   xmlns:dc="http://purl.org/dc/elements/1.1/"
   xmlns:cc="http://creativecommons.org/ns#"
   xmlns:rdf="http://www.w3.org/1999/02/22-rdf-syntax-ns#"
   xmlns:svg="http://www.w3.org/2000/svg"
   xmlns="http://www.w3.org/2000/svg"
   xmlns:xlink="http://www.w3.org/1999/xlink"
   xmlns:sodipodi="http://sodipodi.sourceforge.net/DTD/sodipodi-0.dtd"
   xmlns:inkscape="http://www.inkscape.org/namespaces/inkscape"
   width="129.43213mm"
   height="82.533035mm"
   viewBox="0 0 129.43213 82.533035"
   version="1.1"
   id="svg1553"
   inkscape:version="0.92.5 (2060ec1f9f, 2020-04-08)"
   sodipodi:docname="cesta.svg">
  <defs
     id="defs1547">
    <linearGradient
       id="linearGradient820"
       inkscape:collect="always">
      <stop
         id="stop828"
         offset="0"
         style="stop-color:#212c30;stop-opacity:1" />
      <stop
         id="stop830"
         offset="1"
         style="stop-color:#a333f1;stop-opacity:0" />
    </linearGradient>
    <linearGradient
       inkscape:collect="always"
       xlink:href="#linearGradient820"
       id="linearGradient833"
       x1="343.50082"
       y1="615.82697"
       x2="606.81921"
       y2="794.16583"
       gradientUnits="userSpaceOnUse" />
  </defs>
  <sodipodi:namedview
     id="base"
     pagecolor="#ffffff"
     bordercolor="#666666"
     borderopacity="1.0"
     inkscape:pageopacity="0.0"
     inkscape:pageshadow="2"
     inkscape:zoom="0.7"
     inkscape:cx="113.14173"
     inkscape:cy="107.39104"
     inkscape:document-units="mm"
     inkscape:current-layer="layer1"
     showgrid="false"
     fit-margin-top="0"
     fit-margin-left="0"
     fit-margin-right="0"
     fit-margin-bottom="0"
     inkscape:window-width="1555"
     inkscape:window-height="1042"
     inkscape:window-x="1670"
     inkscape:window-y="0"
     inkscape:window-maximized="0" />
  <metadata
     id="metadata1550">
    <rdf:RDF>
      <cc:Work
         rdf:about="">
        <dc:format>image/svg+xml</dc:format>
        <dc:type
           rdf:resource="http://purl.org/dc/dcmitype/StillImage" />
        <dc:title />
      </cc:Work>
    </rdf:RDF>
  </metadata>
  <g
     inkscape:label="Camada 1"
     inkscape:groupmode="layer"
     id="layer1"
     transform="translate(-19.569129,-122.29834)">
    <path
       style="fill:url(#linearGradient833);stroke-width:3.77952766;fill-opacity:1"
       d="m 392.16602,462.23047 c -21.15117,-0.002 -45.51083,0.004 -73.59375,0.004 -181.47297,0 -206.27169,0.18005 -211.4668,1.5332 -32.822137,8.5491 -44.258355,49.13104 -20.587892,73.05273 2.768315,2.79772 6.499583,5.87767 8.292969,6.84375 l 3.261719,1.75586 19.339844,90.85352 c 10.63718,49.96928 19.71019,93.68936 20.16211,97.15625 1.06496,8.17009 3.07552,13.57694 7.56836,20.3457 5.95068,8.96512 14.06203,15.02074 24.92969,18.61133 4.55134,1.50361 18.10769,1.6608 151.09179,1.75 143.73443,0.0965 146.18736,0.0641 151.91992,-1.9082 17.04685,-5.865 29.20812,-19.79458 31.49024,-36.07032 0.49546,-3.53363 9.79012,-48.49632 20.6543,-99.91797 l 19.7539,-93.49414 5.17383,-5.05273 c 11.84651,-11.56592 15.89908,-28.23623 10.90039,-44.8457 -2.95827,-9.82953 -11.25412,-19.99228 -20.36523,-24.95118 -9.65858,-5.25684 -0.46725,-5.65014 -148.52539,-5.66601 z m -278.29883,30.00391 204.60156,0.004 c 201.03681,0.004 204.65883,0.0366 207.79883,1.95117 4.10562,2.50337 6.35175,5.98166 7.0039,10.84375 0.71396,5.32305 -1.57184,9.30337 -8.11718,14.13868 -3.94832,2.91681 -5.80264,5.12597 -6.94727,8.27148 -0.85886,2.36013 -10.85446,49.06603 -22.21289,103.79102 -11.35842,54.72498 -21.35586,101.21554 -22.2168,103.3125 -1.91062,4.65377 -6.02562,8.26486 -10.98632,9.64257 -2.47862,0.68841 -49.74285,1.0206 -141.71875,0.99414 -148.43082,-0.0412 -142.49312,0.16382 -148.22852,-5.11523 -2.92547,-2.69273 -6.21976,-9.31165 -6.25,-12.5625 -0.0473,-4.79951 -41.22265,-196.98292 -42.9082,-200.27148 -1.32945,-2.59371 -3.55832,-4.40627 -8.60743,-7 -7.78129,-3.99727 -10.45056,-7.01547 -11.13281,-12.5879 -0.60805,-4.96633 1.92617,-10.07137 6.52344,-13.14257 z m 169.48047,68.40039 c -0.90618,-0.0173 -1.79331,0.052 -2.62696,0.21875 -4.02848,0.80568 -7.9474,4.75864 -8.66797,8.74218 -0.31218,1.72589 -0.43677,30.51285 -0.27539,63.97071 l 0.29493,60.83203 3.26562,2.91797 c 2.59041,2.3142 4.20253,2.91797 7.79883,2.91797 5.55689,0 9.65623,-1.99614 11.24023,-5.47266 0.88541,-1.94325 1.19532,-18.7537 1.19532,-64.93945 0,-61.34627 -0.0331,-62.35965 -2.05469,-64.92969 -1.94904,-2.47782 -6.24318,-4.18264 -10.16992,-4.25781 z m 74,0 c -0.90618,-0.0173 -1.79331,0.052 -2.62696,0.21875 -3.98832,0.79763 -7.73084,4.53708 -8.52734,8.51953 -0.34221,1.71095 -0.62109,29.61867 -0.62109,62.01757 0,63.2891 0.0256,63.64797 5.11523,67.2129 1.42785,1.0001 4.3398,1.63086 7.5293,1.63086 4.47397,-10e-6 5.63033,-0.4311 8.27734,-3.07813 l 3.07813,-3.07617 v -63.28906 c 0,-62.32483 -0.0323,-63.32742 -2.05469,-65.89844 -1.94905,-2.47782 -6.24318,-4.18264 -10.16992,-4.25781 z m -148.05274,0.0332 c -4.1966,0.0149 -7.87489,1.76625 -9.76562,4.86719 -1.87805,3.08024 -1.9513,5.4789 -1.95508,64.54687 -0.004,66.30924 0.003,66.39623 5.29883,68.95508 2.91231,1.40712 10.00946,1.46769 12.98633,0.11133 1.30998,-0.59687 3.13094,-2.35382 4.04687,-3.9043 1.50542,-2.54857 1.6651,-8.75317 1.66211,-64.66406 -0.004,-59.56063 -0.0765,-61.96393 -1.95508,-65.04492 -1.36448,-2.23782 -3.16617,-3.52708 -5.99609,-4.28907 -1.4673,-0.3951 -2.9234,-0.58307 -4.32227,-0.57812 z m 221.97461,0.11133 c -3.0746,0.0893 -6.07335,1.10266 -8.0625,3.09179 -1.30722,1.30727 -2.65398,4.06025 -2.99414,6.11914 -1.08412,6.55877 -0.72019,118.4195 0.39844,122.44727 0.56591,2.03751 2.19869,4.62499 3.6289,5.75 1.89616,1.49151 4.07473,2.04688 8.04297,2.04688 4.68155,-10e-6 5.85064,-0.40924 8.36524,-2.92383 l 2.92383,-2.92188 v -63.44336 c 0,-62.39811 -0.035,-63.48532 -2.04688,-66.04297 -2.22378,-2.82707 -6.3028,-4.23784 -10.25586,-4.12304 z"
       transform="scale(0.26458333)"
       id="path2135"
       inkscape:connector-curvature="0" />
  </g>
</svg>
