<?xml version="1.0" encoding="UTF-8" standalone="no"?>
<!-- Generator: Adobe Illustrator 17.1.0, SVG Export Plug-In . SVG Version: 6.00 Build 0)  -->

<svg
   xmlns:dc="http://purl.org/dc/elements/1.1/"
   xmlns:cc="http://creativecommons.org/ns#"
   xmlns:rdf="http://www.w3.org/1999/02/22-rdf-syntax-ns#"
   xmlns:svg="http://www.w3.org/2000/svg"
   xmlns="http://www.w3.org/2000/svg"
   xmlns:sodipodi="http://sodipodi.sourceforge.net/DTD/sodipodi-0.dtd"
   xmlns:inkscape="http://www.inkscape.org/namespaces/inkscape"
   version="1.1"
   id="Capa_1"
   x="0px"
   y="0px"
   viewBox="0 0 300.00001 400.00001"
   xml:space="preserve"
   sodipodi:docname="ebook_icon.svg"
   width="300"
   height="400"
   inkscape:version="0.92.5 (2060ec1f9f, 2020-04-08)"><metadata
   id="metadata39"><rdf:RDF><cc:Work
       rdf:about=""><dc:format>image/svg+xml</dc:format><dc:type
         rdf:resource="http://purl.org/dc/dcmitype/StillImage" /><dc:title></dc:title></cc:Work></rdf:RDF></metadata><defs
   id="defs37" /><sodipodi:namedview
   pagecolor="#ffffff"
   bordercolor="#666666"
   borderopacity="1"
   objecttolerance="10"
   gridtolerance="10"
   guidetolerance="10"
   inkscape:pageopacity="0"
   inkscape:pageshadow="2"
   inkscape:window-width="1600"
   inkscape:window-height="866"
   id="namedview35"
   showgrid="false"
   fit-margin-top="0"
   fit-margin-left="0"
   fit-margin-right="0"
   fit-margin-bottom="0"
   inkscape:zoom="0.48374039"
   inkscape:cx="184.9565"
   inkscape:cy="243.9325"
   inkscape:window-x="0"
   inkscape:window-y="90"
   inkscape:window-maximized="1"
   inkscape:current-layer="Capa_1" />
<path
   d="M 258.0981,0 H 41.9019 C 18.796531,0 0,19.00362 0,42.3609 V 357.6391 C 0,380.99638 18.797342,400 41.9019,400 H 258.0981 C 281.20266,400 300,380.99638 300,357.6391 V 42.3609 C 300,19.00362 281.20266,0 258.0981,0 Z m 33.79191,357.6391 c 0,18.83718 -15.15839,34.16191 -33.79191,34.16191 H 41.9019 c -18.633519,0 -33.791907,-15.32473 -33.791907,-34.16191 V 42.3609 c 0,-18.83718 15.158388,-34.161911 33.791907,-34.161911 h 216.1962 c 18.63352,0 33.79191,15.324731 33.79191,34.161911 z M 271.2744,40.72602 H 28.725596 c -2.23998,0 -4.054997,1.83493 -4.054997,4.0995 v 310.33995 c 0,2.26456 1.815017,4.09949 4.054997,4.09949 H 271.2744 c 2.23998,0 4.055,-1.83493 4.055,-4.09949 V 44.82552 c 0,-2.26457 -1.81583,-4.0995 -4.055,-4.0995 z M 32.780592,48.92501 H 267.21941 v 233.34652 h -63.99758 c -2.23998,0 -4.055,1.83493 -4.055,4.09949 v 4.63981 H 48.33394 c -2.23998,0 -4.055,1.83494 -4.055,4.0995 0,2.26456 1.81502,4.09949 4.055,4.09949 h 150.83208 v 11.78277 H 48.33394 c -2.23998,0 -4.055,1.83493 -4.055,4.09949 0,2.26457 1.81502,4.0995 4.055,4.0995 h 150.83208 v 31.87439 H 32.780592 Z M 207.27683,290.4697 h 54.208 l -54.208,54.79877 z m 5.73457,60.59627 54.2072,-54.79876 v 54.79876 z M 69.09552,125.93074 h 182.56973 c 2.23998,0 4.055,1.83493 4.055,4.09949 0,2.26456 -1.81502,4.0995 -4.055,4.0995 H 69.09552 c -2.23998,0 -4.055,-1.83494 -4.055,-4.0995 0,-2.26456 1.81502,-4.09949 4.055,-4.09949 z m -24.81658,25.10121 c 0,-2.26457 1.81502,-4.0995 4.055,-4.0995 h 203.33131 c 2.23998,0 4.055,1.83493 4.055,4.0995 0,2.26456 -1.81502,4.09949 -4.055,4.09949 H 48.33394 c -2.23917,0 -4.055,-1.83493 -4.055,-4.09949 z m 0,21.00171 c 0,-2.26456 1.81502,-4.0995 4.055,-4.0995 h 203.33131 c 2.23998,0 4.055,1.83494 4.055,4.0995 0,2.26456 -1.81502,4.09949 -4.055,4.09949 H 48.33394 c -2.23917,0 -4.055,-1.83493 -4.055,-4.09949 z m 0,21.00253 c 0,-2.26456 1.81502,-4.0995 4.055,-4.0995 h 203.33131 c 2.23998,0 4.055,1.83494 4.055,4.0995 0,2.26456 -1.81502,4.09949 -4.055,4.09949 H 48.33394 c -2.23917,0 -4.055,-1.83493 -4.055,-4.09949 z m 0,17.44499 c 0,-2.26456 1.81502,-4.0995 4.055,-4.0995 h 203.33131 c 2.23998,0 4.055,1.83494 4.055,4.0995 0,2.26456 -1.81502,4.09949 -4.055,4.09949 H 48.33394 c -2.23917,0 -4.055,-1.83493 -4.055,-4.09949 z m 211.44131,21.00171 c 0,2.26456 -1.81502,4.09949 -4.055,4.09949 H 69.09552 c -2.23998,0 -4.055,-1.83493 -4.055,-4.09949 0,-2.26456 1.81502,-4.0995 4.055,-4.0995 h 182.56973 c 2.23998,0 4.055,1.83494 4.055,4.0995 z M 44.27894,252.4846 c 0,-2.26456 1.81502,-4.09949 4.055,-4.09949 h 203.33131 c 2.23998,0 4.055,1.83493 4.055,4.09949 0,2.26456 -1.81502,4.0995 -4.055,4.0995 H 48.33394 c -2.23917,0 -4.055,-1.83494 -4.055,-4.0995 z m 0,21.00253 c 0,-2.26456 1.81502,-4.09949 4.055,-4.09949 h 203.33131 c 2.23998,0 4.055,1.83493 4.055,4.09949 0,2.26456 -1.81502,4.0995 -4.055,4.0995 H 48.33394 c -2.23917,0 -4.055,-1.83576 -4.055,-4.0995 z M 58.12027,81.05767 c 0,-2.26456 1.81501,-4.0995 4.05499,-4.0995 h 175.64948 c 2.23998,0 4.05499,1.83494 4.05499,4.0995 0,2.26456 -1.81501,4.09949 -4.05499,4.09949 H 62.17526 c -2.23998,0 -4.05499,-1.83493 -4.05499,-4.09949 z M 150,360.97773 c -7.60231,0 -13.78699,6.25255 -13.78699,13.93828 0,7.68573 6.18468,13.93828 13.78699,13.93828 7.60231,0 13.78699,-6.25255 13.78699,-13.93828 0,-7.68573 -6.18468,-13.93828 -13.78699,-13.93828 z m 0,19.67757 c -3.12965,0 -5.677,-2.5753 -5.677,-5.73929 0,-3.16399 2.54735,-5.73929 5.677,-5.73929 3.12965,0 5.677,2.5753 5.677,5.73929 0,3.16399 -2.54735,5.73929 -5.677,5.73929 z"
   id="path2"
   inkscape:connector-curvature="0"
   style="stroke-width:0.81543702" />
<g
   id="g4"
   transform="translate(-58.976,-87.865)">
</g>
<g
   id="g6"
   transform="translate(-58.976,-87.865)">
</g>
<g
   id="g8"
   transform="translate(-58.976,-87.865)">
</g>
<g
   id="g10"
   transform="translate(-58.976,-87.865)">
</g>
<g
   id="g12"
   transform="translate(-58.976,-87.865)">
</g>
<g
   id="g14"
   transform="translate(-58.976,-87.865)">
</g>
<g
   id="g16"
   transform="translate(-58.976,-87.865)">
</g>
<g
   id="g18"
   transform="translate(-58.976,-87.865)">
</g>
<g
   id="g20"
   transform="translate(-58.976,-87.865)">
</g>
<g
   id="g22"
   transform="translate(-58.976,-87.865)">
</g>
<g
   id="g24"
   transform="translate(-58.976,-87.865)">
</g>
<g
   id="g26"
   transform="translate(-58.976,-87.865)">
</g>
<g
   id="g28"
   transform="translate(-58.976,-87.865)">
</g>
<g
   id="g30"
   transform="translate(-58.976,-87.865)">
</g>
<g
   id="g32"
   transform="translate(-58.976,-87.865)">
</g>
</svg>