<?xml version="1.0" encoding="UTF-8" standalone="no"?>
<svg
   viewBox="0 0 330 330"
   enable-background="new 0 0 50 50"
   version="1.1"
   id="svg6"
   sodipodi:docname="like.svg"
   width="330"
   height="330"
   inkscape:version="1.1 (ce6663b3b7, 2021-05-25)"
   xmlns:inkscape="http://www.inkscape.org/namespaces/inkscape"
   xmlns:sodipodi="http://sodipodi.sourceforge.net/DTD/sodipodi-0.dtd"
   xmlns="http://www.w3.org/2000/svg"
   xmlns:svg="http://www.w3.org/2000/svg">

  <path 
     style="fill:red; stroke-width:9.09052;stroke-linecap:butt;stroke-linejoin:miter;stroke-miterlimit:4;stroke-dasharray:none;stroke-opacity:1"
     d="m 101.66403,158.65901 c 23.84566,13.67826 46.70648,-54.83557 61.69492,-86.825567 7.96534,-17.000481 4.6279,-45.535464 14.26121,-54.272813 9.63331,-8.7373429 17.75737,-6.894313 23.10298,-1.207528 17.60865,18.7325 12.53566,56.812585 4.37909,84.367708 -4.34309,14.67212 -13.46763,26.02573 -11.86191,30.62584 4.70067,13.46663 94.75971,-9.13586 113.21363,5.92452 18.45392,15.06036 8.74077,16.93356 6.04564,25.24238 -2.69513,8.30882 -10.8302,6.04404 -16.35976,16.07474 -3.07349,5.5754 6.78322,17.03545 6.56671,25.54017 -0.17292,6.79621 -13.96422,11.32672 -16.26393,17.37638 -2.50532,6.59064 7.50977,23.25466 2.4401,29.02828 -5.4073,6.15812 -14.95245,8.42542 -16.27718,15.32213 -2.56675,13.36277 13.04204,5.9997 -3.53916,28.79134 -16.58119,22.79166 -127.44384,7.97481 -127.44384,7.97481 l -38.84058,-20.761 c -8.884698,-7.87653 -6.695722,30.41878 -6.695722,30.41878 0,0 -84.564595,16.99287 -84.540336,-10.64681 0.0358,-40.78734 0.624939,-112.17741 0,-171.59257 -0.290704,-27.63828 84.998609,-11.08142 84.998609,-11.08142 0,0 0.36813,36.97516 5.119529,39.70063 z"
     id="path1259"
     sodipodi:nodetypes="sazsssszssssszcccsscs" />
</svg>
